<mxfile host="app.diagrams.net" modified="2024-02-04T22:10:39.130Z" agent="Mozilla/5.0 (Windows NT 10.0; Win64; x64) AppleWebKit/537.36 (KHTML, like Gecko) Chrome/120.0.0.0 Safari/537.36" version="23.1.1" etag="V0UMgT6MbPt_xBM0AV50" type="github">
  <diagram name="Страница — 1" id="SrOOmS-PvAzrUCycXSJJ">
    <mxGraphModel>
      <root>
        <mxCell id="0" />
        <mxCell id="1" parent="0" />
      </root>
    </mxGraphModel>
  </diagram>
</mxfile>
